<?xml version="1.0" encoding="UTF-8"?>
<svg width="1200pt" height="1200pt" version="1.1" viewBox="0 0 1200 1200" xmlns="http://www.w3.org/2000/svg">
 <path d="m474.98 150c-41.109 0-75 33.891-75 75v24.984h-124.97c-68.766 0-125.02 56.297-125.02 125.02v249.98c0 35.578 19.547 67.922 50.016 84.891v215.11c0 68.812 56.156 125.02 124.97 125.02h550.03c68.812 0 124.97-56.203 124.97-125.02v-215.11c30.469-16.969 50.016-49.312 50.016-84.891v-249.98c0-68.719-56.25-125.02-125.02-125.02h-124.97v-24.984c0-41.109-33.891-75-75-75zm0 50.016h250.03c14.109 0 24.984 10.875 24.984 24.984v24.984h-300v-24.984c0-14.109 10.875-24.984 24.984-24.984zm-199.97 99.984h649.97c41.719 0 75 33.281 75 75v249.98c0 19.734-12.094 37.219-30.562 44.156l-329.76 123.66c-12.703 4.7344-26.109 7.2188-39.656 7.2188s-26.953-2.4844-39.656-7.2188l-329.76-123.66c-18.469-6.9375-30.562-24.422-30.562-44.156v-249.98c0-41.719 33.281-75 75-75zm-25.031 429.79 292.78 109.88c18.281 6.8438 37.688 10.312 57.234 10.312s38.953-3.4688 57.234-10.312l292.78-109.88v195.19c0 42-33.047 75-75 75h-550.03c-41.953 0-75-33-75-75z" fill="#fff"/>
 <path d="m600 350.02c-13.828 0-24.984 11.156-24.984 24.984v24.984c-41.156 0-75 33.891-75 75s33.891 75 75 75h50.016c14.297 0 24.984 10.734 24.984 24.984 0 14.297-10.734 24.984-24.984 24.984h-50.016c-14.297 0.046875-25.031-10.688-25.031-24.938 0-13.828-11.156-25.031-24.984-25.031s-24.984 11.203-24.984 25.031c0 41.109 33.891 75 75 75v24.984c0 13.828 11.203 24.984 24.984 24.984 13.828 0 24.984-11.203 24.984-24.984v-24.984c41.156 0 75-33.891 75-75 0-41.156-33.844-75-75-75h-50.016c-14.25 0-24.984-10.734-24.984-25.031 0-14.25 10.734-24.984 25.031-24.984h50.016c14.25 0 24.984 10.734 24.984 24.984 0 13.828 11.156 25.031 24.984 25.031s24.984-11.203 24.984-25.031c0-41.109-33.844-75-75-75v-24.984c0-13.828-11.156-24.984-24.984-24.984z" fill="#fff"/>
</svg>
