<?xml version="1.0" encoding="UTF-8"?>
<svg width="1200pt" height="1200pt" version="1.1" viewBox="0 0 1200 1200" xmlns="http://www.w3.org/2000/svg">
 <path d="m527.16 782.21c50.062 0 90.844-47.438 90.844-105.75s-40.734-105.75-90.844-105.75c-50.062 0-90.844 47.438-90.844 105.75 0.046875 58.312 40.781 105.75 90.844 105.75zm0-175.5c30.234 0 54.844 31.266 54.844 69.75 0 38.438-24.609 69.75-54.844 69.75s-54.844-31.266-54.844-69.75c0.046875-38.484 24.609-69.75 54.844-69.75z" fill="#fff"/>
 <path d="m689.53 368.86 270.66-2.8594c9.9375-0.046875 17.953-8.1562 17.906-18.094s-8.1562-17.953-18.094-17.906h-0.1875l-270.66 2.8594c-20.391 0.46875-39.516 9.8438-52.453 25.594l-90.703 124.5h-258c-36.656 0.28125-66.188 30.188-66 66.891v253.26c-0.1875 36.656 29.344 66.609 66 66.891h478.31c36.703-0.28125 66.234-30.188 66-66.891v-184.55c53.906-12.656 102.84-40.875 140.86-81.141 6.7969-7.2656 6.4219-18.656-0.84375-25.453-7.2656-6.7969-18.656-6.4219-25.453 0.84375-37.453 39.75-87.047 65.859-141 74.344l-138.32 21.797h0.046875c-1.7344-0.09375-3.3281-0.60937-4.7344-1.5938-3.375-2.1562-5.3438-5.9531-5.1562-9.9375 0.14062-5.5781 3.0938-10.688 7.875-13.547l118.73-90.094c7.9219-6 9.4688-17.297 3.4688-25.219-6-7.9219-17.297-9.4688-25.219-3.4688l-23.531 17.859h-148.55l74.297-102.05h-0.046875c6.1875-7.3594 15.234-11.766 24.797-12.047zm-431.53 180.98c-0.23438-16.828 13.172-30.609 30-30.891h29.719v1.5c0.375 32.719-25.828 59.578-58.547 60h-1.1719zm59.719 284.16h-29.719c-16.828-0.28125-30.234-14.062-30-30.891v-30.656h1.1719c32.719 0.42188 58.875 27.281 58.547 60zm478.6-30.891c0.23438 16.828-13.172 30.609-30 30.891h-29.672v-1.5469c-0.375-32.719 25.828-59.578 58.547-60h1.125zm-104.72-284.16-46.828 35.531c-14.438 9.5156-23.109 25.688-23.109 42.984-0.14062 16.125 7.9688 31.219 21.469 39.984 7.0312 4.7812 15.328 7.4062 23.859 7.5938 2.25 0 4.5469-0.23438 6.7969-0.65625l122.58-19.266v111.33h-1.1719c-52.594 0.42188-94.875 43.406-94.547 96v1.5469h-346.92v-1.5469c0.32812-52.594-41.953-95.531-94.547-96h-1.1719v-120h1.1719c52.594-0.46875 94.875-43.406 94.547-96v-1.5z" fill="#fff"/>
</svg>
