<?xml version="1.0" encoding="UTF-8"?>
<svg width="1200pt" height="1200pt" version="1.1" viewBox="0 0 1200 1200" xmlns="http://www.w3.org/2000/svg">
 <path d="m600 37.5c-195.19 0-354 158.9-354 354.19 0 146.02 91.688 279 228.19 330.94 19.312 7.4062 41.016-2.3438 48.375-21.703s-2.3438-41.016-21.703-48.375c-107.53-40.922-179.81-145.74-179.81-260.81 0-153.94 125.16-279.19 279-279.19 153.84 0 279 125.26 279 279.19 0 115.08-72.281 219.89-179.81 260.81-19.359 7.3594-29.062 29.016-21.703 48.375 5.7188 14.953 19.922 24.188 35.062 24.188 4.4062 0 8.9531-0.79688 13.312-2.4375 136.45-51.938 228.19-184.92 228.19-330.94 0-195.28-158.81-354.19-354-354.19z" fill="#fff"/>
 <path d="m695.48 976.5-57.984 57.938v-464.9c42.797-15.422 73.547-56.344 73.547-104.39 0-61.219-49.828-111.05-111.05-111.05-19.875 0-36.047-16.172-36.047-36.047s16.172-36.047 36.047-36.047 36.047 16.172 36.047 36.047c0 20.719 16.781 37.5 37.5 37.5s37.5-16.781 37.5-37.5c0-48.047-30.75-88.969-73.547-104.39v-18.375c0-20.719-16.781-37.5-37.5-37.5s-37.5 16.781-37.5 37.5v18.375c-42.797 15.422-73.547 56.344-73.547 104.39 0 61.219 49.828 111.05 111.05 111.05 19.875 0 36.047 16.172 36.047 36.047s-16.172 36.047-36.047 36.047-36.047-16.172-36.047-36.047c0-20.719-16.781-37.5-37.5-37.5s-37.5 16.781-37.5 37.5c0 48.047 30.75 88.969 73.547 104.39v464.9l-57.984-57.938c-14.625-14.625-38.391-14.625-53.016 0s-14.625 38.391 0 53.016l121.97 121.97c7.3125 7.3125 16.922 10.969 26.531 10.969s19.172-3.6562 26.531-10.969l121.97-121.97c14.625-14.625 14.625-38.391 0-53.016s-38.391-14.625-53.016 0z" fill="#fff"/>
</svg>
