<?xml version="1.0" encoding="UTF-8"?>
<svg width="1200pt" height="1200pt" version="1.1" viewBox="0 0 1200 1200" xmlns="http://www.w3.org/2000/svg">
 <path d="m975 247.5-311.25-112.5c-41.25-15-86.25-15-127.5 0l-311.25 112.5c-45 15-75 56.25-75 105v97.5c0 281.25 240 600 450 600s450-318.75 450-600v-97.5c0-48.75-30-90-75-105zm0 202.5c0 255-221.25 525-375 525s-375-270-375-525v-97.5c0-15 11.25-30 26.25-33.75l311.25-112.5c11.25-3.75 26.25-7.5 37.5-7.5s26.25 3.75 37.5 7.5l311.25 112.5c15 3.75 26.25 18.75 26.25 33.75z" fill="#fff"/>
 <path d="m720 423.75c-15-15-37.5-15-52.5 0l-67.5 67.5-67.5-67.5c-15-15-37.5-15-52.5 0s-15 37.5 0 52.5l67.5 67.5-67.5 67.5c-15 15-15 37.5 0 52.5 7.5 7.5 18.75 11.25 26.25 11.25s18.75-3.75 26.25-11.25l67.5-67.5 67.5 67.5c7.5 7.5 18.75 11.25 26.25 11.25s18.75-3.75 26.25-11.25c15-15 15-37.5 0-52.5l-67.5-67.5 67.5-67.5c15-15 15-37.5 0-52.5z" fill="#fff"/>
</svg>
